<?xml version="1.0" encoding="utf-8"?>
<!-- Generator: Adobe Illustrator 27.5.0, SVG Export Plug-In . SVG Version: 6.00 Build 0)  -->
<svg version="1.1" xmlns="http://www.w3.org/2000/svg" xmlns:xlink="http://www.w3.org/1999/xlink" x="0px" y="0px"
	 viewBox="0 0 500 500" style="enable-background:new 0 0 500 500;" xml:space="preserve">
<g id="BACKGROUND">
	<rect style="fill:#FFFFFF;" width="500" height="500"/>
</g>
<g id="OBJECT">
	<g>
		<path style="fill:#F7FCFC;" d="M74.665,408.225c-72.956-86.556,22.324-160.857,95.228-167.63
			c72.904-6.773,40.452-133.031,153.755-118.484s167.637,156.018,121.836,288.928L74.665,408.225z"/>
		<g>
			<path style="fill:#BFDCE8;" d="M423.152,249.188c-0.801-3.341-2.121-6.478-3.86-9.328c-2.689-4.386-6.388-8.086-10.775-10.769
				c-2.851-1.751-5.988-3.066-9.328-3.866c-2.444-0.592-4.996-0.902-7.619-0.902c-2.623,0-5.175,0.311-7.613,0.896
				c-3.341,0.801-6.478,2.121-9.329,3.872c-4.386,2.683-8.085,6.382-10.775,10.769c-1.745,2.85-3.06,5.988-3.86,9.328
				c-0.592,2.444-0.902,4.996-0.902,7.619c0,2.623,0.311,5.169,0.896,7.613c0.801,3.341,2.121,6.484,3.866,9.328
				c2.689,4.386,6.388,8.085,10.775,10.769c2.851,1.751,5.988,3.072,9.329,3.872c2.438,0.586,4.99,0.896,7.613,0.896
				c2.623,0,5.175-0.311,7.619-0.902c3.341-0.801,6.478-2.115,9.328-3.866c4.386-2.683,8.085-6.382,10.769-10.769
				c1.751-2.845,3.066-5.988,3.872-9.328c0.586-2.444,0.896-4.99,0.896-7.613C424.055,254.184,423.744,251.632,423.152,249.188z
				 M377.772,266.719c-9.846-16.458,7.278-33.569,23.717-23.706c1.586,0.951,2.922,2.288,3.874,3.874
				c9.863,16.44-7.247,33.564-23.706,23.717C380.065,269.652,378.725,268.311,377.772,266.719z"/>
			<g>
				<path style="fill:#BFDCE8;" d="M396.834,232.768h-10.523c-1.301,0-2.356-1.055-2.356-2.355v-13.275
					c0-1.301,1.055-2.356,2.356-2.356h10.523c1.301,0,2.356,1.055,2.356,2.356v13.275
					C399.19,231.713,398.135,232.768,396.834,232.768z"/>
				<path style="fill:#BFDCE8;" d="M396.834,298.828h-10.523c-1.301,0-2.356-1.055-2.356-2.355v-13.275
					c0-1.301,1.055-2.355,2.356-2.355h10.523c1.301,0,2.356,1.055,2.356,2.355v13.275
					C399.19,297.773,398.135,298.828,396.834,298.828z"/>
			</g>
			<g>
				<path style="fill:#BFDCE8;" d="M412.29,243.529l-7.441-7.441c-0.92-0.92-0.92-2.411,0-3.331l9.387-9.387
					c0.92-0.92,2.411-0.92,3.331,0l7.441,7.441c0.92,0.92,0.92,2.411,0,3.331l-9.387,9.387
					C414.701,244.449,413.21,244.449,412.29,243.529z"/>
				<path style="fill:#BFDCE8;" d="M365.578,290.24l-7.441-7.441c-0.92-0.92-0.92-2.411,0-3.331l9.387-9.387
					c0.92-0.92,2.411-0.92,3.331,0l7.441,7.441c0.92,0.92,0.92,2.411,0,3.331l-9.387,9.387
					C367.99,291.16,366.498,291.16,365.578,290.24z"/>
			</g>
			<g>
				<path style="fill:#BFDCE8;" d="M415.609,262.067v-10.523c0-1.301,1.055-2.355,2.356-2.355h13.275
					c1.301,0,2.356,1.055,2.356,2.355v10.523c0,1.301-1.055,2.355-2.356,2.355h-13.275
					C416.664,264.422,415.609,263.368,415.609,262.067z"/>
				<path style="fill:#BFDCE8;" d="M349.55,262.067v-10.523c0-1.301,1.055-2.355,2.355-2.355h13.275
					c1.301,0,2.356,1.055,2.356,2.355v10.523c0,1.301-1.055,2.355-2.356,2.355h-13.275
					C350.604,264.422,349.55,263.368,349.55,262.067z"/>
			</g>
			<g>
				<path style="fill:#BFDCE8;" d="M404.849,277.522l7.441-7.441c0.92-0.92,2.411-0.92,3.331,0l9.387,9.387
					c0.92,0.92,0.92,2.411,0,3.331l-7.441,7.441c-0.92,0.92-2.411,0.92-3.331,0l-9.387-9.387
					C403.929,279.934,403.929,278.442,404.849,277.522z"/>
				<path style="fill:#BFDCE8;" d="M358.137,230.811l7.441-7.441c0.92-0.92,2.411-0.92,3.331,0l9.387,9.387
					c0.92,0.92,0.92,2.411,0,3.331l-7.441,7.441c-0.92,0.92-2.411,0.92-3.331,0l-9.387-9.387
					C357.217,233.222,357.217,231.731,358.137,230.811z"/>
			</g>
		</g>
		<g>
			<path style="fill:#BFDCE8;" d="M299.156,366.616c-0.458-1.911-1.214-3.705-2.208-5.336c-1.538-2.509-3.654-4.625-6.163-6.16
				c-1.63-1.001-3.425-1.754-5.336-2.212c-1.398-0.338-2.858-0.516-4.358-0.516c-1.501,0-2.96,0.178-4.355,0.513
				c-1.911,0.458-3.705,1.214-5.336,2.215c-2.509,1.535-4.625,3.651-6.163,6.16c-0.998,1.63-1.75,3.425-2.208,5.336
				c-0.338,1.398-0.516,2.858-0.516,4.358c0,1.501,0.178,2.957,0.513,4.355c0.458,1.911,1.213,3.709,2.212,5.336
				c1.538,2.509,3.654,4.625,6.163,6.16c1.63,1.002,3.425,1.757,5.336,2.215c1.395,0.335,2.854,0.513,4.355,0.513
				c1.501,0,2.96-0.178,4.358-0.516c1.911-0.458,3.705-1.21,5.336-2.212c2.509-1.535,4.625-3.651,6.16-6.16
				c1.001-1.627,1.754-3.425,2.215-5.336c0.335-1.398,0.513-2.854,0.513-4.355C299.672,369.473,299.494,368.014,299.156,366.616z
				 M273.198,376.644c-5.632-9.414,4.163-19.201,13.566-13.56c0.907,0.544,1.671,1.309,2.216,2.216
				c5.642,9.404-4.145,19.198-13.56,13.566C274.51,378.321,273.743,377.554,273.198,376.644z"/>
			<g>
				<path style="fill:#BFDCE8;" d="M283.094,357.224h-4.003c-1.301,0-2.356-1.055-2.356-2.356v-5.577
					c0-1.301,1.055-2.356,2.356-2.356h4.003c1.301,0,2.356,1.055,2.356,2.356v5.577
					C285.449,356.169,284.395,357.224,283.094,357.224z"/>
				<path style="fill:#BFDCE8;" d="M283.094,395.01h-4.003c-1.301,0-2.356-1.055-2.356-2.355v-5.577
					c0-1.301,1.055-2.356,2.356-2.356h4.003c1.301,0,2.356,1.055,2.356,2.356v5.577C285.449,393.955,284.395,395.01,283.094,395.01z
					"/>
			</g>
			<g>
				<path style="fill:#BFDCE8;" d="M292.23,362.666l-2.831-2.831c-0.92-0.92-0.92-2.411,0-3.331l3.943-3.943
					c0.92-0.92,2.411-0.92,3.331,0l2.831,2.831c0.92,0.92,0.92,2.411,0,3.331l-3.943,3.943
					C294.641,363.586,293.15,363.586,292.23,362.666z"/>
				<path style="fill:#BFDCE8;" d="M265.511,389.385l-2.831-2.831c-0.92-0.92-0.92-2.411,0-3.331l3.943-3.943
					c0.92-0.92,2.411-0.92,3.331,0l2.83,2.831c0.92,0.92,0.92,2.411,0,3.331l-3.943,3.943
					C267.922,390.305,266.431,390.305,265.511,389.385z"/>
			</g>
			<g>
				<path style="fill:#BFDCE8;" d="M294.841,372.974v-4.003c0-1.301,1.055-2.355,2.356-2.355h5.577c1.301,0,2.355,1.055,2.355,2.355
					v4.003c0,1.301-1.055,2.356-2.355,2.356h-5.577C295.896,375.33,294.841,374.275,294.841,372.974z"/>
				<path style="fill:#BFDCE8;" d="M257.055,372.974v-4.003c0-1.301,1.055-2.355,2.356-2.355h5.577c1.301,0,2.356,1.055,2.356,2.355
					v4.003c0,1.301-1.055,2.356-2.356,2.356h-5.577C258.11,375.33,257.055,374.275,257.055,372.974z"/>
			</g>
			<g>
				<path style="fill:#BFDCE8;" d="M289.399,382.11l2.831-2.831c0.92-0.92,2.411-0.92,3.331,0l3.943,3.943
					c0.92,0.92,0.92,2.411,0,3.331l-2.831,2.831c-0.92,0.92-2.411,0.92-3.331,0l-3.943-3.943
					C288.479,384.522,288.479,383.03,289.399,382.11z"/>
				<path style="fill:#BFDCE8;" d="M262.68,355.391l2.831-2.831c0.92-0.92,2.411-0.92,3.331,0l3.943,3.943
					c0.92,0.92,0.92,2.411,0,3.331l-2.83,2.831c-0.92,0.92-2.411,0.92-3.331,0l-3.943-3.943
					C261.76,357.803,261.76,356.311,262.68,355.391z"/>
			</g>
		</g>
		<path style="fill:#D7EFF7;" d="M447.64,420.021H52.748c-4.089,0-7.404-3.315-7.404-7.404l0,0c0-4.089,3.315-7.404,7.404-7.404
			H447.64c4.089,0,7.404,3.315,7.404,7.404l0,0C455.044,416.706,451.729,420.021,447.64,420.021z"/>
		<g>
			<g>
				<path style="fill:#213740;" d="M370.092,358.272H108.11c-9.93,0-17.98-8.05-17.98-17.98V184.464c0-9.93,8.05-17.98,17.98-17.98
					h261.982c9.93,0,17.98,8.05,17.98,17.98v155.827C388.073,350.222,380.023,358.272,370.092,358.272z"/>
				<path style="fill:#17282D;" d="M244.207,344.368c0,2.82-2.286,5.105-5.105,5.105s-5.106-2.286-5.106-5.105
					c0-2.82,2.286-5.106,5.106-5.106S244.207,341.549,244.207,344.368z"/>
				<rect x="105.114" y="185.963" style="fill:#F7F0DD;" width="267.975" height="146.088"/>
				<rect x="105.114" y="185.963" style="fill:#BFDCE8;" width="267.975" height="8.06"/>
				<path style="fill:#213740;" d="M297.838,410.264H180.365l0,0c0-6.953,5.637-12.591,12.59-12.591h92.291
					C292.201,397.673,297.838,403.31,297.838,410.264L297.838,410.264z"/>
				<polygon style="fill:#17282D;" points="278.85,397.673 199.353,397.673 209.353,358.272 268.85,358.272 				"/>
			</g>
			<rect x="135.669" y="212.732" style="fill:#7458D9;" width="89.016" height="57.678"/>
			<rect x="135.669" y="283.16" style="fill:#9DBCD6;" width="89.016" height="9.825"/>
			<rect x="278.342" y="212.732" style="fill:#7458D9;" width="75.922" height="9.825"/>
			<rect x="278.342" y="231.747" style="fill:#9DBCD6;" width="75.922" height="9.825"/>
			<rect x="135.669" y="303.203" style="fill:#9DBCD6;" width="89.016" height="9.825"/>
			<path style="fill:#FFFFFF;" d="M169.893,240.595l10.766,6.216c3.03,1.749,6.818-0.437,6.818-3.936v-12.432
				c0-3.499-3.788-5.686-6.818-3.936l-10.766,6.216C166.863,234.472,166.863,238.846,169.893,240.595z"/>
			
				<line style="fill:none;stroke:#2D1D7C;stroke-width:2;stroke-linecap:round;stroke-miterlimit:10;" x1="142.472" y1="260.03" x2="216.824" y2="260.03"/>
			
				<line style="fill:none;stroke:#FFFFFF;stroke-width:2;stroke-linecap:round;stroke-miterlimit:10;" x1="207.436" y1="257.12" x2="207.436" y2="262.663"/>
			<rect x="242.798" y="212.732" style="fill:#F8D7D0;" width="24.564" height="28.839"/>
			<rect x="278.342" y="253.364" style="fill:#7458D9;" width="75.922" height="9.825"/>
			<rect x="278.342" y="272.378" style="fill:#9DBCD6;" width="75.922" height="9.825"/>
			<rect x="242.798" y="253.364" style="fill:#F8D7D0;" width="24.564" height="28.839"/>
			<rect x="242.798" y="294.162" style="fill:#F8D7D0;" width="24.564" height="18.866"/>
			<rect x="278.764" y="294.162" style="fill:#F8D7D0;" width="24.564" height="18.866"/>
			<rect x="314.039" y="294.162" style="fill:#F8D7D0;" width="24.564" height="18.866"/>
			<g>
				
					<text transform="matrix(1 0 0 1 322.4696 306.7375)" style="fill:#F76D8C; font-family:'FontAwesome5FreeSolid'; font-size:9.2803px;">user</text>
			</g>
			<g>
				<polyline style="fill:none;stroke:#F76D8C;stroke-miterlimit:10;" points="256.332,300.46 252.076,303.883 256.332,307.307 				
					"/>
				<path style="fill:#F76D8C;" d="M258.992,299.882c0,1.039-0.842,1.882-1.882,1.882s-1.882-0.843-1.882-1.882
					c0-1.039,0.842-1.882,1.882-1.882S258.992,298.843,258.992,299.882z"/>
				<path style="fill:#F76D8C;" d="M253.958,303.883c0,1.039-0.842,1.882-1.882,1.882s-1.882-0.843-1.882-1.882
					c0-1.039,0.842-1.882,1.882-1.882S253.958,302.844,253.958,303.883z"/>
				<path style="fill:#F76D8C;" d="M258.843,307.647c0,1.039-0.842,1.882-1.882,1.882c-1.039,0-1.882-0.843-1.882-1.882
					c0-1.039,0.842-1.882,1.882-1.882C258.001,305.765,258.843,306.608,258.843,307.647z"/>
			</g>
			<path style="fill:#7458D9;" d="M297.079,303.281c0,2.761-2.701,4.999-6.034,4.999c-3.332,0-6.034-2.238-6.034-4.999
				c0-2.761,2.701-4.999,6.034-4.999C294.378,298.283,297.079,300.521,297.079,303.281z"/>
			<polygon style="fill:#7458D9;" points="285.537,304.677 283.216,308.881 287.471,307.307 			"/>
		</g>
		<g>
			<path style="fill:#BFDCE8;" d="M99.68,410.159c-52.566-30.687-60.398-85.57-61.503-104.671c-0.191-3.298,2.149-6.109,5.379-6.802
				c8.671-1.861,14.169-11.813,15.292-14.018c0.117-0.23,0.219-0.461,0.306-0.704c0.956-2.646,9.668-23.816,43.858-23.816
				c34.18,0,42.892,21.17,43.847,23.816c0.088,0.242,0.19,0.474,0.307,0.704c1.122,2.205,6.621,12.157,15.292,14.018
				c3.23,0.693,5.57,3.504,5.379,6.802c-1.104,19.101-8.934,73.984-61.492,104.671C104.289,411.36,101.737,411.36,99.68,410.159z"/>
			<path style="opacity:0.58;fill:#FFFFFF;" d="M125.019,263.828L71.744,387.759c-4.763-5.177-8.851-10.574-12.364-16.021
				l49.66-111.364C115.306,260.872,120.585,262.13,125.019,263.828z"/>
			<path style="opacity:0.58;fill:#FFFFFF;" d="M139.013,272.544L84.395,399.625c-2.779-2.238-5.388-4.552-7.838-6.925
				l55.859-125.249C135.035,269.056,137.214,270.804,139.013,272.544z"/>
			<path style="fill:#503FA8;" d="M100.316,395.906c-42.517-24.82-48.852-69.211-49.745-84.661
				c-0.154-2.668,1.738-4.941,4.351-5.502c7.014-1.505,11.461-9.554,12.369-11.338c0.094-0.186,0.177-0.373,0.248-0.569
				c0.773-2.14,7.82-19.263,35.474-19.263c27.646,0,34.692,17.122,35.465,19.263c0.071,0.196,0.153,0.383,0.248,0.569
				c0.908,1.784,5.355,9.833,12.369,11.338c2.613,0.561,4.505,2.834,4.351,5.502c-0.893,15.449-7.227,59.84-49.736,84.661
				C104.044,396.877,101.979,396.877,100.316,395.906z"/>
			<path style="fill:#7458D9;" d="M100.626,388.954c-37.616-21.959-43.22-61.233-44.011-74.901c-0.136-2.36,1.538-4.372,3.849-4.868
				c6.205-1.332,10.139-8.453,10.943-10.031c0.084-0.164,0.157-0.33,0.219-0.504c0.684-1.894,6.918-17.042,31.384-17.042
				c24.459,0,30.693,15.148,31.377,17.042c0.063,0.173,0.136,0.339,0.219,0.504c0.803,1.578,4.738,8.699,10.943,10.031
				c2.312,0.496,3.986,2.507,3.849,4.868c-0.79,13.668-6.393,52.942-44.003,74.901C103.924,389.814,102.098,389.814,100.626,388.954
				z"/>
			<path style="fill:#503FA8;" d="M109.5,354.179H93.394c-5.939,0-10.754-4.815-10.754-10.754v-12.851
				c0-5.939,4.815-10.754,10.754-10.754H109.5c5.939,0,10.754,4.815,10.754,10.754v12.851
				C120.254,349.364,115.439,354.179,109.5,354.179z"/>
			<path style="fill:none;stroke:#BFDCE8;stroke-width:3;stroke-miterlimit:10;" d="M111.036,318.777H91.858v-5.591
				c0-5.296,4.293-9.589,9.589-9.589l0,0c5.296,0,9.589,4.293,9.589,9.589V318.777z"/>
			<path style="fill:#F7CA7E;" d="M109.5,351.285H93.394c-5.939,0-10.754-4.815-10.754-10.754v-12.851
				c0-5.94,4.815-10.754,10.754-10.754H109.5c5.939,0,10.754,4.815,10.754,10.754v12.851
				C120.254,346.471,115.439,351.285,109.5,351.285z"/>
			<path style="fill:#F4AA73;" d="M105.011,328.605c0,1.968-1.595,3.564-3.564,3.564s-3.564-1.596-3.564-3.564
				c0-1.968,1.596-3.564,3.564-3.564S105.011,326.637,105.011,328.605z"/>
			<polygon style="fill:#F4AA73;" points="100.339,331.991 95.726,339.36 108.186,339.36 103.007,331.805 			"/>
		</g>
		<g>
			<polygon style="fill:#F8D7D0;" points="48.189,107.637 48.189,204.494 141.884,204.494 141.884,120.041 129.48,107.637 			"/>
			<polygon style="fill:#F9C6BD;" points="129.48,107.637 129.48,120.094 141.884,120.041 			"/>
			
				<rect x="26.232" y="139.798" transform="matrix(-1 -1.224647e-16 1.224647e-16 -1 149.3298 312.1312)" style="fill:#7458D9;" width="96.866" height="32.535"/>
			<text transform="matrix(1 0 0 1 48.1894 164.3087)" style="fill:#FFFFFF; font-family:'Lato-Black'; font-size:23.7829px;">CMS</text>
			
				<rect x="61.111" y="184.559" transform="matrix(-1 -1.224647e-16 1.224647e-16 -1 184.2094 375.4675)" style="fill:#FFFFFF;" width="61.987" height="6.348"/>
			
				<rect x="61.111" y="123.963" transform="matrix(-1 -1.224647e-16 1.224647e-16 -1 184.2094 254.275)" style="fill:#FFFFFF;" width="61.987" height="6.349"/>
		</g>
		<g>
			<path style="fill:#F4AA73;" d="M348.065,204.414h-4.463v-52.689c0-3.572,2.896-6.469,6.468-6.469h49.925
				c1.431,0,2.822,0.475,3.955,1.35l4.393,3.395c1.133,0.875,2.524,1.35,3.955,1.35h11.536c3.572,0,6.469,2.896,6.469,6.469v46.594
				H348.065z"/>
			<polygon style="opacity:0.53;fill:#DD8E58;" points="370.021,165.699 343.602,193.129 343.602,204.414 365.165,204.414 			"/>
			<g>
				<g>
					<path style="fill:#F7CA7E;" d="M343.602,204.414l19.959-36.874c0.736-1.359,2.157-2.206,3.702-2.206h74.019
						c2.998,0,5.035,3.045,3.891,5.816l-13.733,33.263H343.602z"/>
				</g>
			</g>
			<g style="opacity:0.13;">
				<path style="fill:#FFFFFF;" d="M445.433,170.18c-0.577-0.314-1.245-0.486-1.964-0.486h-74.027c-1.539,0-2.966,0.85-3.705,2.207
					l-17.593,32.514h-4.545l19.962-36.877c0.739-1.357,2.156-2.207,3.705-2.207h74.017
					C443.934,165.331,445.827,167.71,445.433,170.18z"/>
			</g>
		</g>
		<polygon style="opacity:0.27;fill:#020202;" points="273.16,375.27 205.04,375.27 209.35,358.27 268.85,358.27 		"/>
		<g>
			<path style="fill:#BFDCE8;" d="M187.778,175.31h99.684c7.982,0,12.53-10.826,7.149-17.52c-0.208-0.259-0.428-0.513-0.66-0.762
				c-6.495-6.959-15.282,0-15.282,0s-4.63-42.095-38.227-42.095c-33.597,0-38.181,36.871-38.181,36.871s-8.023-9.977-19.484-0.434
				c-6.712,5.589-5.562,12.843-3.457,17.894C180.865,172.969,184.168,175.31,187.778,175.31z"/>
			<polygon style="fill:#7458D9;" points="239.76,132.63 223.93,154.199 255.591,154.199 			"/>
			<rect x="233.592" y="152.045" style="fill:#7458D9;" width="12.337" height="23.265"/>
			<path style="opacity:0.1;fill:#6241D3;" d="M231.61,115.874c-16.109,10.193-20.563,38.325-20.563,38.325
				s-3.577-1.845-8.785-2.395C206.376,132.63,215.029,119.601,231.61,115.874z"/>
			<path style="opacity:0.1;fill:#6241D3;" d="M295.047,170.948c-1.673,2.582-4.344,4.367-7.589,4.367h-99.685
				c-3.604,0-6.904-2.346-8.453-6.051c-2.099-5.052-3.256-12.304,3.457-17.894c3.896-3.244,7.398-4.232,10.328-4.12
				c-6.421,5.546-5.287,12.674-3.199,17.658c1.538,3.704,4.85,6.04,8.453,6.04H295.047z"/>
		</g>
		<g>
			<g>
				<path style="fill:#27217A;" d="M416.805,310.637H335.88c-1.045,0-1.892-0.847-1.892-1.892v-6.394
					c0-1.045,0.847-1.892,1.892-1.892h80.924c1.045,0,1.892,0.847,1.892,1.892v6.394C418.697,309.79,417.85,310.637,416.805,310.637
					z"/>
				<g>
					<path style="fill:#7458D9;" d="M427.145,328.453H325.54c-1.045,0-1.892-0.847-1.892-1.892V308.18
						c0-1.045,0.847-1.892,1.892-1.892h101.604c1.045,0,1.892,0.847,1.892,1.892v18.381
						C429.037,327.606,428.19,328.453,427.145,328.453z"/>
					<path style="opacity:0.29;fill:#27217A;" d="M427.145,321.084H325.54c-1.045,0-1.892-0.847-1.892-1.892v-3.642
						c0-1.045,0.847-1.892,1.892-1.892h101.604c1.045,0,1.892,0.847,1.892,1.892v3.642
						C429.037,320.237,428.19,321.084,427.145,321.084z"/>
					<path style="opacity:0.65;fill:#27217A;" d="M427.145,321.084h-40.434c-1.045,0-1.892-0.847-1.892-1.892v-3.642
						c0-1.045,0.847-1.892,1.892-1.892h40.434c1.045,0,1.892,0.847,1.892,1.892v3.642
						C429.037,320.237,428.19,321.084,427.145,321.084z"/>
					<path style="fill:#F7CA7E;" d="M336.781,317.371c0,2.051-1.613,3.713-3.602,3.713s-3.602-1.662-3.602-3.713
						c0-2.051,1.612-3.713,3.602-3.713S336.781,315.32,336.781,317.371z"/>
					<path style="fill:#7CCF9A;" d="M351.402,317.371c0,2.051-1.612,3.713-3.602,3.713c-1.989,0-3.602-1.662-3.602-3.713
						c0-2.051,1.612-3.713,3.602-3.713C349.79,313.658,351.402,315.32,351.402,317.371z"/>
				</g>
			</g>
			<g>
				<path style="fill:#27217A;" d="M416.805,338.165H335.88c-1.045,0-1.892-0.847-1.892-1.892v-6.393
					c0-1.045,0.847-1.892,1.892-1.892h80.924c1.045,0,1.892,0.847,1.892,1.892v6.393
					C418.697,337.318,417.85,338.165,416.805,338.165z"/>
				<g>
					<path style="fill:#7458D9;" d="M427.145,355.982H325.54c-1.045,0-1.892-0.847-1.892-1.892v-18.381
						c0-1.045,0.847-1.892,1.892-1.892h101.604c1.045,0,1.892,0.847,1.892,1.892v18.381
						C429.037,355.135,428.19,355.982,427.145,355.982z"/>
					<path style="opacity:0.29;fill:#27217A;" d="M427.145,348.705H325.54c-1.045,0-1.892-0.847-1.892-1.892v-3.642
						c0-1.045,0.847-1.892,1.892-1.892h101.604c1.045,0,1.892,0.847,1.892,1.892v3.642
						C429.037,347.858,428.19,348.705,427.145,348.705z"/>
					<path style="opacity:0.65;fill:#27217A;" d="M427.145,348.705h-40.434c-1.045,0-1.892-0.847-1.892-1.892v-3.642
						c0-1.045,0.847-1.892,1.892-1.892h40.434c1.045,0,1.892,0.847,1.892,1.892v3.642
						C429.037,347.858,428.19,348.705,427.145,348.705z"/>
					<ellipse style="fill:#F7CA7E;" cx="333.179" cy="344.9" rx="3.602" ry="3.713"/>
					<ellipse style="fill:#F7CA7E;" cx="347.801" cy="344.9" rx="3.602" ry="3.713"/>
				</g>
			</g>
			<g>
				<path style="fill:#27217A;" d="M416.805,365.694H335.88c-1.045,0-1.892-0.847-1.892-1.892v-6.393
					c0-1.045,0.847-1.892,1.892-1.892h80.924c1.045,0,1.892,0.847,1.892,1.892v6.393
					C418.697,364.847,417.85,365.694,416.805,365.694z"/>
				<g>
					<path style="fill:#7458D9;" d="M427.145,383.511H325.54c-1.045,0-1.892-0.847-1.892-1.892v-18.381
						c0-1.045,0.847-1.892,1.892-1.892h101.604c1.045,0,1.892,0.847,1.892,1.892v18.381
						C429.037,382.664,428.19,383.511,427.145,383.511z"/>
					<path style="opacity:0.29;fill:#27217A;" d="M427.145,376.262H325.54c-1.045,0-1.892-0.847-1.892-1.892v-3.642
						c0-1.045,0.847-1.892,1.892-1.892h101.604c1.045,0,1.892,0.847,1.892,1.892v3.642
						C429.037,375.415,428.19,376.262,427.145,376.262z"/>
					<path style="opacity:0.65;fill:#27217A;" d="M427.145,376.262h-40.434c-1.045,0-1.892-0.847-1.892-1.892v-3.642
						c0-1.045,0.847-1.892,1.892-1.892h40.434c1.045,0,1.892,0.847,1.892,1.892v3.642
						C429.037,375.415,428.19,376.262,427.145,376.262z"/>
					<path style="fill:#F7CA7E;" d="M336.781,372.428c0,2.051-1.613,3.713-3.602,3.713s-3.602-1.662-3.602-3.713
						c0-2.051,1.612-3.713,3.602-3.713S336.781,370.378,336.781,372.428z"/>
					<path style="fill:#27217A;" d="M351.402,372.428c0,2.051-1.612,3.713-3.602,3.713c-1.989,0-3.602-1.662-3.602-3.713
						c0-2.051,1.612-3.713,3.602-3.713C349.79,368.716,351.402,370.378,351.402,372.428z"/>
				</g>
			</g>
			<g>
				<path style="fill:#27217A;" d="M416.805,393.223H335.88c-1.045,0-1.892-0.847-1.892-1.892v-6.393
					c0-1.045,0.847-1.892,1.892-1.892h80.924c1.045,0,1.892,0.847,1.892,1.892v6.393
					C418.697,392.376,417.85,393.223,416.805,393.223z"/>
				<g>
					<path style="fill:#7458D9;" d="M427.145,411.039H325.54c-1.045,0-1.892-0.847-1.892-1.892v-18.381
						c0-1.045,0.847-1.892,1.892-1.892h101.604c1.045,0,1.892,0.847,1.892,1.892v18.381
						C429.037,410.193,428.19,411.039,427.145,411.039z"/>
					<path style="opacity:0.29;fill:#27217A;" d="M427.145,403.588H325.54c-1.045,0-1.892-0.847-1.892-1.892v-3.642
						c0-1.045,0.847-1.892,1.892-1.892h101.604c1.045,0,1.892,0.847,1.892,1.892v3.642
						C429.037,402.741,428.19,403.588,427.145,403.588z"/>
					<path style="opacity:0.65;fill:#27217A;" d="M427.145,403.588h-40.434c-1.045,0-1.892-0.847-1.892-1.892v-3.642
						c0-1.045,0.847-1.892,1.892-1.892h40.434c1.045,0,1.892,0.847,1.892,1.892v3.642
						C429.037,402.741,428.19,403.588,427.145,403.588z"/>
					<path style="fill:#7CCF9A;" d="M336.781,399.957c0,2.051-1.613,3.713-3.602,3.713s-3.602-1.662-3.602-3.713
						c0-2.051,1.612-3.713,3.602-3.713S336.781,397.907,336.781,399.957z"/>
					<path style="fill:#F7CA7E;" d="M351.402,399.957c0,2.051-1.612,3.713-3.602,3.713c-1.989,0-3.602-1.662-3.602-3.713
						c0-2.051,1.612-3.713,3.602-3.713C349.79,396.244,351.402,397.907,351.402,399.957z"/>
					<path style="fill:#27217A;" d="M366.647,317.371c0,2.051-1.612,3.713-3.602,3.713c-1.989,0-3.602-1.662-3.602-3.713
						c0-2.051,1.612-3.713,3.602-3.713C365.035,313.658,366.647,315.32,366.647,317.371z"/>
					<path style="fill:#7CCF9A;" d="M366.647,344.9c0,2.051-1.612,3.713-3.602,3.713c-1.989,0-3.602-1.662-3.602-3.713
						c0-2.051,1.612-3.713,3.602-3.713C365.035,341.187,366.647,342.849,366.647,344.9z"/>
					<path style="fill:#7CCF9A;" d="M366.647,372.428c0,2.051-1.612,3.713-3.602,3.713c-1.989,0-3.602-1.662-3.602-3.713
						c0-2.051,1.612-3.713,3.602-3.713C365.035,368.716,366.647,370.378,366.647,372.428z"/>
					<path style="fill:#27217A;" d="M366.647,399.957c0,2.051-1.612,3.713-3.602,3.713c-1.989,0-3.602-1.662-3.602-3.713
						c0-2.051,1.612-3.713,3.602-3.713C365.035,396.244,366.647,397.907,366.647,399.957z"/>
					<path style="fill:#F7CA7E;" d="M336.781,317.371c0,2.051-1.613,3.713-3.602,3.713s-3.602-1.662-3.602-3.713
						c0-2.051,1.612-3.713,3.602-3.713S336.781,315.32,336.781,317.371z"/>
					<path style="fill:#7CCF9A;" d="M351.402,317.371c0,2.051-1.612,3.713-3.602,3.713c-1.989,0-3.602-1.662-3.602-3.713
						c0-2.051,1.612-3.713,3.602-3.713C349.79,313.658,351.402,315.32,351.402,317.371z"/>
					<ellipse style="fill:#F76D8C;" cx="333.179" cy="344.9" rx="3.602" ry="3.713"/>
					<ellipse style="fill:#F7CA7E;" cx="347.801" cy="344.9" rx="3.602" ry="3.713"/>
					<path style="fill:#F7CA7E;" d="M336.781,372.428c0,2.051-1.613,3.713-3.602,3.713s-3.602-1.662-3.602-3.713
						c0-2.051,1.612-3.713,3.602-3.713S336.781,370.378,336.781,372.428z"/>
					<path style="fill:#F76D8C;" d="M351.402,372.428c0,2.051-1.612,3.713-3.602,3.713c-1.989,0-3.602-1.662-3.602-3.713
						c0-2.051,1.612-3.713,3.602-3.713C349.79,368.716,351.402,370.378,351.402,372.428z"/>
					<path style="fill:#7CCF9A;" d="M336.781,399.957c0,2.051-1.613,3.713-3.602,3.713s-3.602-1.662-3.602-3.713
						c0-2.051,1.612-3.713,3.602-3.713S336.781,397.907,336.781,399.957z"/>
					<path style="fill:#F7CA7E;" d="M351.402,399.957c0,2.051-1.612,3.713-3.602,3.713c-1.989,0-3.602-1.662-3.602-3.713
						c0-2.051,1.612-3.713,3.602-3.713C349.79,396.244,351.402,397.907,351.402,399.957z"/>
					<path style="fill:#7CCF9A;" d="M366.647,317.371c0,2.051-1.612,3.713-3.602,3.713c-1.989,0-3.602-1.662-3.602-3.713
						c0-2.051,1.612-3.713,3.602-3.713C365.035,313.658,366.647,315.32,366.647,317.371z"/>
					<path style="fill:#7CCF9A;" d="M366.647,344.9c0,2.051-1.612,3.713-3.602,3.713c-1.989,0-3.602-1.662-3.602-3.713
						c0-2.051,1.612-3.713,3.602-3.713C365.035,341.187,366.647,342.849,366.647,344.9z"/>
					<path style="fill:#7CCF9A;" d="M366.647,372.428c0,2.051-1.612,3.713-3.602,3.713c-1.989,0-3.602-1.662-3.602-3.713
						c0-2.051,1.612-3.713,3.602-3.713C365.035,368.716,366.647,370.378,366.647,372.428z"/>
					<path style="fill:#F7CA7E;" d="M366.647,399.957c0,2.051-1.612,3.713-3.602,3.713c-1.989,0-3.602-1.662-3.602-3.713
						c0-2.051,1.612-3.713,3.602-3.713C365.035,396.244,366.647,397.907,366.647,399.957z"/>
				</g>
			</g>
			<g style="opacity:0.54;">
				<g>
					<ellipse style="fill:#FFFFFF;" cx="333.18" cy="317.371" rx="1.602" ry="1.713"/>
				</g>
				<g>
					<path style="fill:#FFFFFF;" d="M347.801,319.084c-0.883,0-1.602-0.769-1.602-1.713s0.719-1.713,1.602-1.713
						c0.883,0,1.602,0.769,1.602,1.713S348.684,319.084,347.801,319.084z"/>
				</g>
				<g>
					<ellipse style="fill:#FFFFFF;" cx="333.18" cy="344.899" rx="1.602" ry="1.713"/>
				</g>
				<g>
					<path style="fill:#FFFFFF;" d="M347.801,346.612c-0.883,0-1.602-0.768-1.602-1.713c0-0.944,0.719-1.713,1.602-1.713
						c0.883,0,1.602,0.769,1.602,1.713C349.402,345.844,348.684,346.612,347.801,346.612z"/>
				</g>
				<g>
					<ellipse style="fill:#FFFFFF;" cx="333.18" cy="372.429" rx="1.602" ry="1.713"/>
				</g>
				<g>
					<path style="fill:#FFFFFF;" d="M347.801,374.142c-0.883,0-1.602-0.769-1.602-1.713c0-0.944,0.719-1.713,1.602-1.713
						c0.883,0,1.602,0.769,1.602,1.713C349.402,373.373,348.684,374.142,347.801,374.142z"/>
				</g>
				<g>
					<ellipse style="fill:#FFFFFF;" cx="333.18" cy="317.371" rx="1.602" ry="1.713"/>
				</g>
				<g>
					<path style="fill:#FFFFFF;" d="M347.801,319.084c-0.883,0-1.602-0.769-1.602-1.713s0.719-1.713,1.602-1.713
						c0.883,0,1.602,0.769,1.602,1.713S348.684,319.084,347.801,319.084z"/>
				</g>
				<g>
					<ellipse style="fill:#FFFFFF;" cx="333.18" cy="344.899" rx="1.602" ry="1.713"/>
				</g>
				<g>
					<path style="fill:#FFFFFF;" d="M347.801,346.612c-0.883,0-1.602-0.768-1.602-1.713c0-0.944,0.719-1.713,1.602-1.713
						c0.883,0,1.602,0.769,1.602,1.713C349.402,345.844,348.684,346.612,347.801,346.612z"/>
				</g>
				<g>
					<ellipse style="fill:#FFFFFF;" cx="333.18" cy="372.429" rx="1.602" ry="1.713"/>
				</g>
				<g>
					<path style="fill:#FFFFFF;" d="M347.801,374.142c-0.883,0-1.602-0.769-1.602-1.713c0-0.944,0.719-1.713,1.602-1.713
						c0.883,0,1.602,0.769,1.602,1.713C349.402,373.373,348.684,374.142,347.801,374.142z"/>
				</g>
				<g>
					<ellipse style="fill:#FFFFFF;" cx="333.18" cy="399.957" rx="1.602" ry="1.713"/>
				</g>
				<g>
					<path style="fill:#FFFFFF;" d="M347.801,401.67c-0.883,0-1.602-0.768-1.602-1.713c0-0.944,0.719-1.713,1.602-1.713
						c0.883,0,1.602,0.769,1.602,1.713C349.402,400.901,348.684,401.67,347.801,401.67z"/>
				</g>
				<g>
					<ellipse style="fill:#FFFFFF;" cx="363.046" cy="317.371" rx="1.602" ry="1.713"/>
				</g>
				<g>
					<ellipse style="fill:#FFFFFF;" cx="363.046" cy="344.899" rx="1.602" ry="1.713"/>
				</g>
				<g>
					<ellipse style="fill:#FFFFFF;" cx="363.046" cy="372.429" rx="1.602" ry="1.713"/>
				</g>
				<g>
					<ellipse style="fill:#FFFFFF;" cx="363.046" cy="399.957" rx="1.602" ry="1.713"/>
				</g>
			</g>
			<rect x="407.429" y="306.289" style="opacity:0.32;fill:#FFFFFF;" width="14.422" height="22.164"/>
			<rect x="407.429" y="333.817" style="opacity:0.32;fill:#FFFFFF;" width="14.422" height="22.164"/>
			<rect x="407.429" y="361.346" style="opacity:0.32;fill:#FFFFFF;" width="14.422" height="22.164"/>
			<rect x="407.429" y="388.875" style="opacity:0.32;fill:#FFFFFF;" width="14.422" height="22.164"/>
		</g>
	</g>
</g>
</svg>
